HIERARCHY
ROOT hip
{
  OFFSET 0.00112043 5.09927 -9.65472
  CHANNELS 6 Xposition Yposition Zposition Zrotation Xrotation Yrotation
  JOINT abdomen
  {
    OFFSET 0 -1.186 -1.5018
    CHANNELS 3 Zrotation Xrotation Yrotation
    JOINT abdomen2
    {
      OFFSET 0 9.964 0.2134
      CHANNELS 3 Zrotation Xrotation Yrotation
      JOINT chest
      {
        OFFSET 0 13.134 -3.2573
        CHANNELS 3 Zrotation Xrotation Yrotation
        JOINT neck
        {
          OFFSET 0 20.686 -1.6905
          CHANNELS 3 Zrotation Xrotation Yrotation
          JOINT head
          {
            OFFSET 0 7.238 -0.1237
            CHANNELS 3 Zrotation Xrotation Yrotation
            End Site
            {
              OFFSET 0 0 0
            }
          }
        }
        JOINT lCollar
        {
          OFFSET 1.7069 20.075 5.0056
          CHANNELS 3 Zrotation Xrotation Yrotation
          JOINT lShldr
          {
            OFFSET 13.6458 -0.047 -4.849
            CHANNELS 3 Zrotation Xrotation Yrotation
            JOINT lForeArm
            {
              OFFSET 28.3255 -0.9759 2.2888
              CHANNELS 3 Zrotation Xrotation Yrotation
              JOINT lHand
              {
                OFFSET 22.1583 -0.53 10.8316
                CHANNELS 3 Zrotation Xrotation Yrotation
                JOINT lThumb1
                {
                  OFFSET 0.786 0.112 2.5817
                  CHANNELS 3 Zrotation Xrotation Yrotation
                  JOINT lThumb2
                  {
                    OFFSET 0.3601 -0.878 4.2331
                    CHANNELS 3 Zrotation Xrotation Yrotation
                    JOINT lThumb2_End
                    {
                      OFFSET 1.8127 -1.216 2.2227
                      CHANNELS 3 Zrotation Xrotation Yrotation
                      End Site
                      {
                        OFFSET 0.0181 -0.0122 0.0222
                      }
                    }
                  }
                }
                JOINT lCarpal1
                {
                  OFFSET 0.9571 1.114 1.7695
                  CHANNELS 3 Zrotation Xrotation Yrotation
                  JOINT lIndex1
                  {
                    OFFSET 4.1246 0.487 4.1451
                    CHANNELS 3 Zrotation Xrotation Yrotation
                    JOINT lIndex2
                    {
                      OFFSET 3.4052 -1.454 2.7682
                      CHANNELS 3 Zrotation Xrotation Yrotation
                      JOINT lIndex2_End
                      {
                        OFFSET 1.4531 -1.795 1.2713
                        CHANNELS 3 Zrotation Xrotation Yrotation
                        End Site
                        {
                          OFFSET 0.0145 -0.0179 0.0127
                        }
                      }
                    }
                  }
                  JOINT lMid1
                  {
                    OFFSET 5.6954 0.21 2.1184
                    CHANNELS 3 Zrotation Xrotation Yrotation
                    JOINT lMid2
                    {
                      OFFSET 3.9766 -1.54 2.3863
                      CHANNELS 3 Zrotation Xrotation Yrotation
                      JOINT lMid2_End
                      {
                        OFFSET 1.4042 -1.926 1.125
                        CHANNELS 3 Zrotation Xrotation Yrotation
                        End Site
                        {
                          OFFSET 0.014 -0.0193 0.0113
                        }
                      }
                    }
                  }
                }
                JOINT lCarpal2
                {
                  OFFSET 2.0956 0.66 -0.3894
                  CHANNELS 3 Zrotation Xrotation Yrotation
                  JOINT lRing1
                  {
                    OFFSET 5.0395 -0.09 2.4971
                    CHANNELS 3 Zrotation Xrotation Yrotation
                    JOINT lRing2
                    {
                      OFFSET 3.7921 -1.552 1.4806
                      CHANNELS 3 Zrotation Xrotation Yrotation
                      JOINT lRing2_End
                      {
                        OFFSET 1.4655 -1.808 0.9609
                        CHANNELS 3 Zrotation Xrotation Yrotation
                        End Site
                        {
                          OFFSET 0.0147 -0.0181 0.0096
                        }
                      }
                    }
                  }
                  JOINT lPinky1
                  {
                    OFFSET 4.9141 -1.269 0.3591
                    CHANNELS 3 Zrotation Xrotation Yrotation
                    JOINT lPinky2
                    {
                      OFFSET 3.1477 -1.685 0.8462
                      CHANNELS 3 Zrotation Xrotation Yrotation
                      JOINT lPinky2_End
                      {
                        OFFSET 0.8055 -1.585 0.7955
                        CHANNELS 3 Zrotation Xrotation Yrotation
                        End Site
                        {
                          OFFSET 0.0081 -0.0158 0.008
                        }
                      }
                    }
                  }
                }
              }
            }
          }
        }
        JOINT rCollar
        {
          OFFSET -1.7069 20.075 5.0056
          CHANNELS 3 Zrotation Xrotation Yrotation
          JOINT rShldr
          {
            OFFSET -13.6458 -0.047 -4.849
            CHANNELS 3 Zrotation Xrotation Yrotation
            JOINT rForeArm
            {
              OFFSET -28.3255 -0.9759 2.2888
              CHANNELS 3 Zrotation Xrotation Yrotation
              JOINT rHand
              {
                OFFSET -22.1583 -0.53 10.8316
                CHANNELS 3 Zrotation Xrotation Yrotation
                JOINT rThumb1
                {
                  OFFSET -0.786 0.112 2.5817
                  CHANNELS 3 Zrotation Xrotation Yrotation
                  JOINT rThumb2
                  {
                    OFFSET -0.3601 -0.878 4.2331
                    CHANNELS 3 Zrotation Xrotation Yrotation
                    JOINT rThumb2_End
                    {
                      OFFSET -1.8127 -1.216 2.2227
                      CHANNELS 3 Zrotation Xrotation Yrotation
                      End Site
                      {
                        OFFSET -0.0181 -0.0122 0.0222
                      }
                    }
                  }
                }
                JOINT rCarpal1
                {
                  OFFSET -0.9571 1.114 1.7695
                  CHANNELS 3 Zrotation Xrotation Yrotation
                  JOINT rIndex1
                  {
                    OFFSET -4.1246 0.487 4.1451
                    CHANNELS 3 Zrotation Xrotation Yrotation
                    JOINT rIndex2
                    {
                      OFFSET -3.4052 -1.454 2.7682
                      CHANNELS 3 Zrotation Xrotation Yrotation
                      JOINT rIndex2_End
                      {
                        OFFSET -1.4531 -1.795 1.2713
                        CHANNELS 3 Zrotation Xrotation Yrotation
                        End Site
                        {
                          OFFSET -0.0145 -0.018 0.0127
                        }
                      }
                    }
                  }
                  JOINT rMid1
                  {
                    OFFSET -5.6954 0.21 2.1184
                    CHANNELS 3 Zrotation Xrotation Yrotation
                    JOINT rMid2
                    {
                      OFFSET -3.9766 -1.54 2.3863
                      CHANNELS 3 Zrotation Xrotation Yrotation
                      JOINT rMid2_End
                      {
                        OFFSET -1.4042 -1.926 1.125
                        CHANNELS 3 Zrotation Xrotation Yrotation
                        End Site
                        {
                          OFFSET -0.014 -0.0193 0.0113
                        }
                      }
                    }
                  }
                }
                JOINT rCarpal2
                {
                  OFFSET -2.0956 0.66 -0.3894
                  CHANNELS 3 Zrotation Xrotation Yrotation
                  JOINT rRing1
                  {
                    OFFSET -5.0395 -0.09 2.4971
                    CHANNELS 3 Zrotation Xrotation Yrotation
                    JOINT rRing2
                    {
                      OFFSET -3.7921 -1.552 1.4806
                      CHANNELS 3 Zrotation Xrotation Yrotation
                      JOINT rRing2_End
                      {
                        OFFSET -1.4655 -1.808 0.9609
                        CHANNELS 3 Zrotation Xrotation Yrotation
                        End Site
                        {
                          OFFSET -0.0147 -0.0181 0.0096
                        }
                      }
                    }
                  }
                  JOINT rPinky1
                  {
                    OFFSET -4.9141 -1.269 0.3592
                    CHANNELS 3 Zrotation Xrotation Yrotation
                    JOINT rPinky2
                    {
                      OFFSET -3.1477 -1.685 0.8462
                      CHANNELS 3 Zrotation Xrotation Yrotation
                      JOINT rPinky2_End
                      {
                        OFFSET -0.8055 -1.585 0.7955
                        CHANNELS 3 Zrotation Xrotation Yrotation
                        End Site
                        {
                          OFFSET -0.0081 -0.0158 0.008
                        }
                      }
                    }
                  }
                }
              }
            }
          }
        }
      }
    }
  }
  JOINT lThigh
  {
    OFFSET 8.367 -8.2066 0.5982
    CHANNELS 3 Zrotation Xrotation Yrotation
    JOINT lShin
    {
      OFFSET 2.1923 -43.463 -0.4932
      CHANNELS 3 Zrotation Xrotation Yrotation
      JOINT lFoot
      {
        OFFSET 0.7333 -45.8593 -2.6451
        CHANNELS 3 Zrotation Xrotation Yrotation
        End Site
        {
          OFFSET 2.6618 -4.2699 12.3931
        }
      }
    }
  }
  JOINT rThigh
  {
    OFFSET -8.367 -8.2066 0.5982
    CHANNELS 3 Zrotation Xrotation Yrotation
    JOINT rShin
    {
      OFFSET -2.1923 -43.463 -0.4931
      CHANNELS 3 Zrotation Xrotation Yrotation
      JOINT rFoot
      {
        OFFSET -0.7333 -45.8593 -2.6451
        CHANNELS 3 Zrotation Xrotation Yrotation
        End Site
        {
          OFFSET -2.6618 -4.2699 12.3931
        }
      }
    }
  }
}
MOTION
Frames:	4
Frame Time:	0.0333333
0 91.7903 2.51682 0 0 -0 0 0 -0 0 0 -0 0 0 -0 0 0 -0 0 0 -0 0 0 -0 1.66051 0.0835086 5.75766 -0.0175111 0.895433 15.7816 7.95139e-016 -1.98785e-016 -0 5.46658e-016 -3.97569e-016 -0 5.96354e-016 0 -0 3.97569e-016 1.98785e-016 9.54166e-015 1.49089e-016 -3.97569e-016 -0 6.4605e-016 0 3.18055e-015 5.96354e-016 0 3.18055e-015 8.94531e-016 -1.98785e-016 6.36111e-015 6.4605e-016 0 3.18055e-015 5.96354e-016 0 3.18055e-015 8.94531e-016 -1.98785e-016 6.36111e-015 1.49089e-016 -3.97569e-016 -0 6.4605e-016 0 3.18055e-015 5.96354e-016 0 3.18055e-015 8.94531e-016 -1.98785e-016 6.36111e-015 6.4605e-016 0 3.18055e-015 5.96354e-016 0 3.18055e-015 8.94531e-016 -1.98785e-016 6.36111e-015 0 0 -0 -1.4496 0.0636048 -5.0245 -1.74811 1.20616 -16.8394 -1.19271e-015 1.98785e-016 -3.18055e-015 -3.97569e-016 1.98785e-016 -3.18055e-015 -2.98177e-016 1.98785e-016 -3.18055e-015 -2.98177e-016 3.97569e-016 -0 4.96962e-016 0 -6.36111e-015 -9.93923e-017 3.97569e-016 -0 -8.94531e-016 5.96354e-016 -0 -3.97569e-016 3.97569e-016 -0 -9.93923e-017 3.97569e-016 -0 -8.94531e-016 5.96354e-016 -0 -3.97569e-016 3.97569e-016 -0 4.96962e-016 0 -6.36111e-015 -9.93923e-017 3.97569e-016 -0 -8.94531e-016 5.96354e-016 -0 -3.97569e-016 3.97569e-016 -0 -9.93923e-017 3.97569e-016 -0 -8.94531e-016 5.96354e-016 -0 -3.97569e-016 3.97569e-016 -0 -4.66111 -0.998717 0.12318 0.00986924 1.54847 0.176523 4.65186 -0.572283 -0.254274 4.66111 -0.998765 -0.123176 -0.00986867 1.54869 -0.176537 -4.65186 -0.572453 0.25427 
3.90169 51.2101 -25.9352 -17.1087 -15.5114 130.985 0.0389559 3.5774 0.075226 0.0734201 7.15483 0.148433 0.0734222 7.15485 0.148427 -8.35543e-006 0.467724 8.75339e-006 0.224821 0.0897215 0.00115329 -8.16712 0.468664 -20.4207 -37.4825 -2.1497 -10.463 1.32553 -1.94379 -17.5836 -4.77353 1.88807 0.0209061 -3.18055e-015 7.95139e-016 -3.18055e-015 3.03471e-007 -2.29867e-006 -1.69397e-007 -4.41391e-032 -1.59028e-015 -1.59028e-015 -6.36111e-015 1.59028e-015 -1.59028e-015 -3.18055e-015 7.95139e-016 -0 3.03471e-007 -2.29867e-006 -1.69397e-007 -6.36111e-015 -7.95139e-016 -2.78299e-015 -3.18055e-015 7.95139e-016 -0 3.03471e-007 -2.29867e-006 -1.69397e-007 -6.36111e-015 -7.95139e-016 -2.78299e-015 -6.36111e-015 1.59028e-015 -1.59028e-015 -3.18055e-015 7.95139e-016 -0 3.03471e-007 -2.29867e-006 -1.69397e-007 -6.36111e-015 -7.95139e-016 -2.78299e-015 -3.18055e-015 7.95139e-016 -0 3.03471e-007 -2.29867e-006 -1.69397e-007 -6.36111e-015 -7.95139e-016 -2.78299e-015 8.17012 0.469143 20.4285 37.6922 -2.1094 11.2037 -3.04317 -2.52716 16.44 4.74915 1.91842 0.00760535 5.62705e-006 7.86957e-007 1.55054e-007 -1.96739e-007 1.40676e-006 -9.46851e-007 7.53605e-006 1.25696e-006 -1.67151e-007 1.78906e-015 7.95139e-016 1.59028e-015 5.62705e-006 7.86957e-007 1.55054e-007 -1.96739e-007 1.40676e-006 -9.46851e-007 7.53605e-006 1.25696e-006 -1.67151e-007 5.62705e-006 7.86957e-007 1.55054e-007 -1.96739e-007 1.40676e-006 -9.46851e-007 7.53605e-006 1.25696e-006 -1.67151e-007 1.78906e-015 7.95139e-016 1.59028e-015 5.62705e-006 7.86957e-007 1.55054e-007 -1.96739e-007 1.40676e-006 -9.46851e-007 7.53605e-006 1.25696e-006 -1.67151e-007 5.62705e-006 7.86957e-007 1.55054e-007 -1.96739e-007 1.40676e-006 -9.46851e-007 7.53605e-006 1.25696e-006 -1.67151e-007 41.1198 -54.2035 62.9742 99.0966 65.8421 -119.796 -28.0233 47.372 23.8812 -41.1531 -54.19 -63.0025 -99.0957 65.8409 119.811 28.0193 47.372 -23.8818 
-3.1215 29.8536 -41.9337 8.64422 -32.3842 -164.154 0.0491042 4.98464 0.111707 0.0889148 9.96936 0.22038 0.0889166 9.96936 0.220379 -6.61287e-006 0.933796 2.02487e-006 0.450515 0.179616 -0.00544165 -12.1089 1.36901 -29.6969 -55.1821 -3.17012 -17.7218 1.27366 -2.71959 -32.2517 -7.16803 2.82009 -0.0569694 -1.20862e-007 5.33597e-007 6.49793e-007 1.98785e-016 0 7.95139e-016 -1.20861e-007 5.33597e-007 6.49793e-007 2.48481e-015 0 1.19271e-015 -1.20862e-007 5.33597e-007 6.49793e-007 2.08724e-015 0 -3.97569e-016 -1.20861e-007 5.33597e-007 6.49793e-007 -1.20862e-007 5.33597e-007 6.49793e-007 2.08724e-015 0 -3.97569e-016 -1.20861e-007 5.33597e-007 6.49793e-007 2.48481e-015 0 1.19271e-015 -1.20862e-007 5.33597e-007 6.49793e-007 2.08724e-015 0 -3.97569e-016 -1.20861e-007 5.33597e-007 6.49793e-007 -1.20862e-007 5.33597e-007 6.49793e-007 2.08724e-015 0 -3.97569e-016 -1.20861e-007 5.33597e-007 6.49793e-007 12.0872 1.36389 29.6562 55.3645 -3.11414 18.4559 -2.80459 -3.65961 31.0776 7.18103 2.8504 0.150721 3.18055e-015 6.36111e-015 -1.19271e-015 3.97569e-016 3.18055e-015 -1.98785e-015 3.06615e-006 -1.34887e-006 1.29534e-006 3.18055e-015 6.36111e-015 -3.97569e-016 -7.95139e-016 3.18055e-015 7.95139e-016 3.97569e-015 3.18055e-015 -2.78299e-015 3.06615e-006 -1.34887e-006 1.29534e-006 -7.95139e-016 3.18055e-015 7.95139e-016 3.97569e-015 3.18055e-015 -2.78299e-015 3.06615e-006 -1.34887e-006 1.29534e-006 3.18055e-015 6.36111e-015 -3.97569e-016 -7.95139e-016 3.18055e-015 7.95139e-016 3.97569e-015 3.18055e-015 -2.78299e-015 3.06615e-006 -1.34887e-006 1.29534e-006 -7.95139e-016 3.18055e-015 7.95139e-016 3.97569e-015 3.18055e-015 -2.78299e-015 3.06615e-006 -1.34887e-006 1.29534e-006 83.2671 -47.2644 100.741 129.171 23.4258 -145.069 -60.5806 56.1988 48.0212 -83.2706 -47.2585 -100.745 -129.173 23.4275 145.064 60.576 56.1988 -48.0226 
-0.654173 35.2227 -38.9601 -0.000865537 -31.3804 179.998 0.0438408 4.22242 0.1069 0.0800846 8.4449 0.211416 0.0800846 8.44488 0.211416 1.98079e-006 1.39898 -2.93224e-007 0.677129 0.269666 -0.0198562 -12.139 2.85669 -27.8319 -50.6012 -3.26716 -15.9768 1.46682 -2.71819 -28.1432 -7.17915 2.79932 -0.351623 -4.0298e-006 -2.63094e-006 -2.61469e-006 3.81997e-007 -1.10295e-006 -1.19469e-006 -1.98785e-016 -9.54166e-015 2.60905e-016 2.85753e-016 3.18055e-015 -7.45443e-017 -4.0298e-006 -2.63094e-006 -2.61469e-006 3.81997e-007 -1.10295e-006 -1.19469e-006 -1.61513e-016 -9.54166e-015 1.98785e-016 -4.0298e-006 -2.63094e-006 -2.61469e-006 3.81997e-007 -1.10295e-006 -1.19469e-006 -1.61513e-016 -9.54166e-015 1.98785e-016 2.85753e-016 3.18055e-015 -7.45443e-017 -4.0298e-006 -2.63094e-006 -2.61469e-006 3.81997e-007 -1.10295e-006 -1.19469e-006 -1.61513e-016 -9.54166e-015 1.98785e-016 -4.0298e-006 -2.63094e-006 -2.61469e-006 3.81997e-007 -1.10295e-006 -1.19469e-006 -1.61513e-016 -9.54166e-015 1.98785e-016 12.0679 2.84077 27.6862 50.7416 -3.23869 16.6917 -3.0669 -3.56459 26.933 7.29269 2.79733 0.548332 1.14678e-007 4.36966e-007 -1.40997e-006 -2.48481e-016 0 -6.95746e-016 1.98785e-016 -9.54166e-015 2.98177e-016 -1.49089e-016 6.36111e-015 -1.39149e-015 1.14678e-007 4.36966e-007 -1.40997e-006 -9.93923e-017 0 -9.44227e-016 4.96962e-016 0 -2.98177e-016 1.14678e-007 4.36966e-007 -1.40997e-006 -9.93923e-017 0 -9.44227e-016 4.96962e-016 0 -2.98177e-016 -1.49089e-016 6.36111e-015 -1.39149e-015 1.14678e-007 4.36966e-007 -1.40997e-006 -9.93923e-017 0 -9.44227e-016 4.96962e-016 0 -2.98177e-016 1.14678e-007 4.36966e-007 -1.40997e-006 -9.93923e-017 0 -9.44227e-016 4.96962e-016 0 -2.98177e-016 76.3083 -51.2028 96.1603 125.946 32.9746 -143.786 -53.472 55.0763 43.1876 -76.3109 -51.1982 -96.1637 -125.947 32.9761 143.781 53.467 55.0764 -43.187 
